<?xml version="1.0" encoding="UTF-8"?>
<svg xmlns="http://www.w3.org/2000/svg" viewBox="0 0 800 600">
<rect x="0.00" y="0.00" width="800.00" height="600.00" fill="white" stroke="black" stroke-width="1.00" fill-opacity="1"/>
<text x="400.00" y="40.00" font-size="24.00" text-anchor="middle" fill="black">Histogram Example</text>
<line x1="80.00" y1="80.00" x2="80.00" y2="520.00" stroke="lightgray" stroke-width="0.50"/>
<line x1="144.00" y1="80.00" x2="144.00" y2="520.00" stroke="lightgray" stroke-width="0.50"/>
<line x1="208.00" y1="80.00" x2="208.00" y2="520.00" stroke="lightgray" stroke-width="0.50"/>
<line x1="272.00" y1="80.00" x2="272.00" y2="520.00" stroke="lightgray" stroke-width="0.50"/>
<line x1="336.00" y1="80.00" x2="336.00" y2="520.00" stroke="lightgray" stroke-width="0.50"/>
<line x1="400.00" y1="80.00" x2="400.00" y2="520.00" stroke="lightgray" stroke-width="0.50"/>
<line x1="464.00" y1="80.00" x2="464.00" y2="520.00" stroke="lightgray" stroke-width="0.50"/>
<line x1="528.00" y1="80.00" x2="528.00" y2="520.00" stroke="lightgray" stroke-width="0.50"/>
<line x1="592.00" y1="80.00" x2="592.00" y2="520.00" stroke="lightgray" stroke-width="0.50"/>
<line x1="656.00" y1="80.00" x2="656.00" y2="520.00" stroke="lightgray" stroke-width="0.50"/>
<line x1="720.00" y1="80.00" x2="720.00" y2="520.00" stroke="lightgray" stroke-width="0.50"/>
<line x1="80.00" y1="80.00" x2="720.00" y2="80.00" stroke="lightgray" stroke-width="0.50"/>
<line x1="80.00" y1="124.00" x2="720.00" y2="124.00" stroke="lightgray" stroke-width="0.50"/>
<line x1="80.00" y1="168.00" x2="720.00" y2="168.00" stroke="lightgray" stroke-width="0.50"/>
<line x1="80.00" y1="212.00" x2="720.00" y2="212.00" stroke="lightgray" stroke-width="0.50"/>
<line x1="80.00" y1="256.00" x2="720.00" y2="256.00" stroke="lightgray" stroke-width="0.50"/>
<line x1="80.00" y1="300.00" x2="720.00" y2="300.00" stroke="lightgray" stroke-width="0.50"/>
<line x1="80.00" y1="344.00" x2="720.00" y2="344.00" stroke="lightgray" stroke-width="0.50"/>
<line x1="80.00" y1="388.00" x2="720.00" y2="388.00" stroke="lightgray" stroke-width="0.50"/>
<line x1="80.00" y1="432.00" x2="720.00" y2="432.00" stroke="lightgray" stroke-width="0.50"/>
<line x1="80.00" y1="476.00" x2="720.00" y2="476.00" stroke="lightgray" stroke-width="0.50"/>
<line x1="80.00" y1="520.00" x2="720.00" y2="520.00" stroke="lightgray" stroke-width="0.50"/>
<line x1="80.00" y1="520.00" x2="720.00" y2="520.00" stroke="black" stroke-width="2.00"/>
<line x1="80.00" y1="80.00" x2="80.00" y2="520.00" stroke="black" stroke-width="2.00"/>
<text x="80.00" y="538.00" font-size="12.00" text-anchor="middle" fill="black">3.0</text>
<text x="144.00" y="538.00" font-size="12.00" text-anchor="middle" fill="black">3.6</text>
<text x="208.00" y="538.00" font-size="12.00" text-anchor="middle" fill="black">4.2</text>
<text x="272.00" y="538.00" font-size="12.00" text-anchor="middle" fill="black">4.8</text>
<text x="336.00" y="538.00" font-size="12.00" text-anchor="middle" fill="black">5.4</text>
<text x="400.00" y="538.00" font-size="12.00" text-anchor="middle" fill="black">6.0</text>
<text x="464.00" y="538.00" font-size="12.00" text-anchor="middle" fill="black">6.6</text>
<text x="528.00" y="538.00" font-size="12.00" text-anchor="middle" fill="black">7.2</text>
<text x="592.00" y="538.00" font-size="12.00" text-anchor="middle" fill="black">7.8</text>
<text x="656.00" y="538.00" font-size="12.00" text-anchor="middle" fill="black">8.4</text>
<text x="720.00" y="538.00" font-size="12.00" text-anchor="middle" fill="black">9.0</text>
<path d="M 80.00,515.00 L 80.00,525.00 M 144.00,515.00 L 144.00,525.00 M 208.00,515.00 L 208.00,525.00 M 272.00,515.00 L 272.00,525.00 M 336.00,515.00 L 336.00,525.00 M 400.00,515.00 L 400.00,525.00 M 464.00,515.00 L 464.00,525.00 M 528.00,515.00 L 528.00,525.00 M 592.00,515.00 L 592.00,525.00 M 656.00,515.00 L 656.00,525.00 M 720.00,515.00 L 720.00,525.00 " stroke="black" stroke-width="1" fill="none"/>
<text x="75.00" y="523.60" font-size="12.00" text-anchor="end" fill="black">0.0</text>
<text x="75.00" y="479.60" font-size="12.00" text-anchor="end" fill="black">4.7</text>
<text x="75.00" y="435.60" font-size="12.00" text-anchor="end" fill="black">9.4</text>
<text x="75.00" y="391.60" font-size="12.00" text-anchor="end" fill="black">14.1</text>
<text x="75.00" y="347.60" font-size="12.00" text-anchor="end" fill="black">18.8</text>
<text x="75.00" y="303.60" font-size="12.00" text-anchor="end" fill="black">23.5</text>
<text x="75.00" y="259.60" font-size="12.00" text-anchor="end" fill="black">28.2</text>
<text x="75.00" y="215.60" font-size="12.00" text-anchor="end" fill="black">32.9</text>
<text x="75.00" y="171.60" font-size="12.00" text-anchor="end" fill="black">37.6</text>
<text x="75.00" y="127.60" font-size="12.00" text-anchor="end" fill="black">42.3</text>
<text x="75.00" y="83.60" font-size="12.00" text-anchor="end" fill="black">47.0</text>
<path d="M 75.00,520.00 L 85.00,520.00 M 75.00,476.00 L 85.00,476.00 M 75.00,432.00 L 85.00,432.00 M 75.00,388.00 L 85.00,388.00 M 75.00,344.00 L 85.00,344.00 M 75.00,300.00 L 85.00,300.00 M 75.00,256.00 L 85.00,256.00 M 75.00,212.00 L 85.00,212.00 M 75.00,168.00 L 85.00,168.00 M 75.00,124.00 L 85.00,124.00 M 75.00,80.00 L 85.00,80.00 " stroke="black" stroke-width="1" fill="none"/>
<text x="400.00" y="580.00" font-size="18.00" text-anchor="middle" fill="black">Values</text>
<text x="26.67" y="300.00" font-size="18.00" text-anchor="middle" fill="black" transform="rotate(-90 26.67 300.00)">Frequency</text>
<rect x="80.00" y="136.17" width="21.33" height="383.83" fill="rgb(135,206,250)" stroke="black" stroke-width="1.00" fill-opacity="1"/>
<rect x="101.33" y="164.26" width="21.33" height="355.74" fill="rgb(135,206,250)" stroke="black" stroke-width="1.00" fill-opacity="1"/>
<rect x="122.67" y="257.87" width="21.33" height="262.13" fill="rgb(135,206,250)" stroke="black" stroke-width="1.00" fill-opacity="1"/>
<rect x="144.00" y="145.53" width="21.33" height="374.47" fill="rgb(135,206,250)" stroke="black" stroke-width="1.00" fill-opacity="1"/>
<rect x="165.33" y="248.51" width="21.33" height="271.49" fill="rgb(135,206,250)" stroke="black" stroke-width="1.00" fill-opacity="1"/>
<rect x="186.67" y="220.43" width="21.33" height="299.57" fill="rgb(135,206,250)" stroke="black" stroke-width="1.00" fill-opacity="1"/>
<rect x="208.00" y="192.34" width="21.33" height="327.66" fill="rgb(135,206,250)" stroke="black" stroke-width="1.00" fill-opacity="1"/>
<rect x="229.33" y="182.98" width="21.33" height="337.02" fill="rgb(135,206,250)" stroke="black" stroke-width="1.00" fill-opacity="1"/>
<rect x="250.67" y="239.15" width="21.33" height="280.85" fill="rgb(135,206,250)" stroke="black" stroke-width="1.00" fill-opacity="1"/>
<rect x="272.00" y="201.70" width="21.33" height="318.30" fill="rgb(135,206,250)" stroke="black" stroke-width="1.00" fill-opacity="1"/>
<rect x="293.33" y="80.00" width="21.33" height="440.00" fill="rgb(135,206,250)" stroke="black" stroke-width="1.00" fill-opacity="1"/>
<rect x="314.67" y="229.79" width="21.33" height="290.21" fill="rgb(135,206,250)" stroke="black" stroke-width="1.00" fill-opacity="1"/>
<rect x="336.00" y="173.62" width="21.33" height="346.38" fill="rgb(135,206,250)" stroke="black" stroke-width="1.00" fill-opacity="1"/>
<rect x="357.33" y="229.79" width="21.33" height="290.21" fill="rgb(135,206,250)" stroke="black" stroke-width="1.00" fill-opacity="1"/>
<rect x="378.67" y="164.26" width="21.33" height="355.74" fill="rgb(135,206,250)" stroke="black" stroke-width="1.00" fill-opacity="1"/>
<rect x="400.00" y="267.23" width="21.33" height="252.77" fill="rgb(135,206,250)" stroke="black" stroke-width="1.00" fill-opacity="1"/>
<rect x="421.33" y="229.79" width="21.33" height="290.21" fill="rgb(135,206,250)" stroke="black" stroke-width="1.00" fill-opacity="1"/>
<rect x="442.67" y="220.43" width="21.33" height="299.57" fill="rgb(135,206,250)" stroke="black" stroke-width="1.00" fill-opacity="1"/>
<rect x="464.00" y="285.96" width="21.33" height="234.04" fill="rgb(135,206,250)" stroke="black" stroke-width="1.00" fill-opacity="1"/>
<rect x="485.33" y="239.15" width="21.33" height="280.85" fill="rgb(135,206,250)" stroke="black" stroke-width="1.00" fill-opacity="1"/>
<rect x="506.67" y="136.17" width="21.33" height="383.83" fill="rgb(135,206,250)" stroke="black" stroke-width="1.00" fill-opacity="1"/>
<rect x="528.00" y="257.87" width="21.33" height="262.13" fill="rgb(135,206,250)" stroke="black" stroke-width="1.00" fill-opacity="1"/>
<rect x="549.33" y="239.15" width="21.33" height="280.85" fill="rgb(135,206,250)" stroke="black" stroke-width="1.00" fill-opacity="1"/>
<rect x="570.67" y="136.17" width="21.33" height="383.83" fill="rgb(135,206,250)" stroke="black" stroke-width="1.00" fill-opacity="1"/>
<rect x="592.00" y="211.06" width="21.33" height="308.94" fill="rgb(135,206,250)" stroke="black" stroke-width="1.00" fill-opacity="1"/>
<rect x="613.33" y="248.51" width="21.33" height="271.49" fill="rgb(135,206,250)" stroke="black" stroke-width="1.00" fill-opacity="1"/>
<rect x="634.67" y="276.60" width="21.33" height="243.40" fill="rgb(135,206,250)" stroke="black" stroke-width="1.00" fill-opacity="1"/>
<rect x="656.00" y="229.79" width="21.33" height="290.21" fill="rgb(135,206,250)" stroke="black" stroke-width="1.00" fill-opacity="1"/>
<rect x="677.33" y="248.51" width="21.33" height="271.49" fill="rgb(135,206,250)" stroke="black" stroke-width="1.00" fill-opacity="1"/>
<rect x="698.67" y="267.23" width="21.33" height="252.77" fill="rgb(135,206,250)" stroke="black" stroke-width="1.00" fill-opacity="1"/>
</svg>
