<?xml version="1.0" encoding="UTF-8"?>
<svg xmlns="http://www.w3.org/2000/svg" viewBox="0 0 800 600">
<rect x="0.00" y="0.00" width="800.00" height="600.00" fill="white" stroke="black" stroke-width="1.00" fill-opacity="1"/>
<text x="400.00" y="40.00" font-size="24.00" text-anchor="middle" fill="black">Quadrant 1 Graph</text>
<line x1="80.00" y1="80.00" x2="80.00" y2="520.00" stroke="lightgray" stroke-width="0.50"/>
<line x1="144.00" y1="80.00" x2="144.00" y2="520.00" stroke="lightgray" stroke-width="0.50"/>
<line x1="208.00" y1="80.00" x2="208.00" y2="520.00" stroke="lightgray" stroke-width="0.50"/>
<line x1="272.00" y1="80.00" x2="272.00" y2="520.00" stroke="lightgray" stroke-width="0.50"/>
<line x1="336.00" y1="80.00" x2="336.00" y2="520.00" stroke="lightgray" stroke-width="0.50"/>
<line x1="400.00" y1="80.00" x2="400.00" y2="520.00" stroke="lightgray" stroke-width="0.50"/>
<line x1="464.00" y1="80.00" x2="464.00" y2="520.00" stroke="lightgray" stroke-width="0.50"/>
<line x1="528.00" y1="80.00" x2="528.00" y2="520.00" stroke="lightgray" stroke-width="0.50"/>
<line x1="592.00" y1="80.00" x2="592.00" y2="520.00" stroke="lightgray" stroke-width="0.50"/>
<line x1="656.00" y1="80.00" x2="656.00" y2="520.00" stroke="lightgray" stroke-width="0.50"/>
<line x1="720.00" y1="80.00" x2="720.00" y2="520.00" stroke="lightgray" stroke-width="0.50"/>
<line x1="80.00" y1="80.00" x2="720.00" y2="80.00" stroke="lightgray" stroke-width="0.50"/>
<line x1="80.00" y1="124.00" x2="720.00" y2="124.00" stroke="lightgray" stroke-width="0.50"/>
<line x1="80.00" y1="168.00" x2="720.00" y2="168.00" stroke="lightgray" stroke-width="0.50"/>
<line x1="80.00" y1="212.00" x2="720.00" y2="212.00" stroke="lightgray" stroke-width="0.50"/>
<line x1="80.00" y1="256.00" x2="720.00" y2="256.00" stroke="lightgray" stroke-width="0.50"/>
<line x1="80.00" y1="300.00" x2="720.00" y2="300.00" stroke="lightgray" stroke-width="0.50"/>
<line x1="80.00" y1="344.00" x2="720.00" y2="344.00" stroke="lightgray" stroke-width="0.50"/>
<line x1="80.00" y1="388.00" x2="720.00" y2="388.00" stroke="lightgray" stroke-width="0.50"/>
<line x1="80.00" y1="432.00" x2="720.00" y2="432.00" stroke="lightgray" stroke-width="0.50"/>
<line x1="80.00" y1="476.00" x2="720.00" y2="476.00" stroke="lightgray" stroke-width="0.50"/>
<line x1="80.00" y1="520.00" x2="720.00" y2="520.00" stroke="lightgray" stroke-width="0.50"/>
<line x1="80.00" y1="520.00" x2="720.00" y2="520.00" stroke="black" stroke-width="2.00"/>
<line x1="80.00" y1="80.00" x2="80.00" y2="520.00" stroke="black" stroke-width="2.00"/>
<text x="80.00" y="538.00" font-size="12.00" text-anchor="middle" fill="black">0.0</text>
<text x="144.00" y="538.00" font-size="12.00" text-anchor="middle" fill="black">1.0</text>
<text x="208.00" y="538.00" font-size="12.00" text-anchor="middle" fill="black">2.0</text>
<text x="272.00" y="538.00" font-size="12.00" text-anchor="middle" fill="black">3.0</text>
<text x="336.00" y="538.00" font-size="12.00" text-anchor="middle" fill="black">4.0</text>
<text x="400.00" y="538.00" font-size="12.00" text-anchor="middle" fill="black">5.0</text>
<text x="464.00" y="538.00" font-size="12.00" text-anchor="middle" fill="black">6.0</text>
<text x="528.00" y="538.00" font-size="12.00" text-anchor="middle" fill="black">7.0</text>
<text x="592.00" y="538.00" font-size="12.00" text-anchor="middle" fill="black">8.0</text>
<text x="656.00" y="538.00" font-size="12.00" text-anchor="middle" fill="black">9.0</text>
<text x="720.00" y="538.00" font-size="12.00" text-anchor="middle" fill="black">10.0</text>
<text x="56.00" y="520.00" font-size="12.00" text-anchor="middle" fill="black">0.0</text>
<text x="56.00" y="476.00" font-size="12.00" text-anchor="middle" fill="black">4.0</text>
<text x="56.00" y="432.00" font-size="12.00" text-anchor="middle" fill="black">8.0</text>
<text x="56.00" y="388.00" font-size="12.00" text-anchor="middle" fill="black">12.0</text>
<text x="56.00" y="344.00" font-size="12.00" text-anchor="middle" fill="black">16.0</text>
<text x="56.00" y="300.00" font-size="12.00" text-anchor="middle" fill="black">20.0</text>
<text x="56.00" y="256.00" font-size="12.00" text-anchor="middle" fill="black">24.0</text>
<text x="56.00" y="212.00" font-size="12.00" text-anchor="middle" fill="black">28.0</text>
<text x="56.00" y="168.00" font-size="12.00" text-anchor="middle" fill="black">32.0</text>
<text x="56.00" y="124.00" font-size="12.00" text-anchor="middle" fill="black">36.0</text>
<text x="56.00" y="80.00" font-size="12.00" text-anchor="middle" fill="black">40.0</text>
<text x="720.00" y="560.00" font-size="18.00" text-anchor="middle" fill="black">X Axis</text>
<text x="26.67" y="300.00" font-size="18.00" text-anchor="middle" fill="black" transform="rotate(-90 26.67 300.00)">Y Axis</text>
<line x1="80.00" y1="520.00" x2="144.00" y2="509.00" stroke="rgb(0,0,220)" stroke-width="1.50"/>
<line x1="144.00" y1="509.00" x2="208.00" y2="498.00" stroke="rgb(0,0,220)" stroke-width="1.50"/>
<line x1="208.00" y1="498.00" x2="272.00" y2="487.00" stroke="rgb(0,0,220)" stroke-width="1.50"/>
<line x1="272.00" y1="487.00" x2="336.00" y2="476.00" stroke="rgb(0,0,220)" stroke-width="1.50"/>
<line x1="336.00" y1="476.00" x2="400.00" y2="465.00" stroke="rgb(0,0,220)" stroke-width="1.50"/>
<line x1="400.00" y1="465.00" x2="464.00" y2="454.00" stroke="rgb(0,0,220)" stroke-width="1.50"/>
<line x1="464.00" y1="454.00" x2="528.00" y2="443.00" stroke="rgb(0,0,220)" stroke-width="1.50"/>
<line x1="528.00" y1="443.00" x2="592.00" y2="432.00" stroke="rgb(0,0,220)" stroke-width="1.50"/>
<line x1="592.00" y1="432.00" x2="656.00" y2="421.00" stroke="rgb(0,0,220)" stroke-width="1.50"/>
<line x1="656.00" y1="421.00" x2="720.00" y2="410.00" stroke="rgb(0,0,220)" stroke-width="1.50"/>
<circle cx="80.00" cy="520.00" r="3.00" fill="black"/>
<circle cx="144.00" cy="509.00" r="3.00" fill="black"/>
<circle cx="208.00" cy="498.00" r="3.00" fill="black"/>
<circle cx="272.00" cy="487.00" r="3.00" fill="black"/>
<circle cx="336.00" cy="476.00" r="3.00" fill="black"/>
<circle cx="400.00" cy="465.00" r="3.00" fill="black"/>
<circle cx="464.00" cy="454.00" r="3.00" fill="black"/>
<circle cx="528.00" cy="443.00" r="3.00" fill="black"/>
<circle cx="592.00" cy="432.00" r="3.00" fill="black"/>
<circle cx="656.00" cy="421.00" r="3.00" fill="black"/>
<circle cx="720.00" cy="410.00" r="3.00" fill="black"/>
<line x1="80.00" y1="520.00" x2="144.00" y2="498.00" stroke="rgb(220,0,0)" stroke-width="1.50"/>
<line x1="144.00" y1="498.00" x2="208.00" y2="476.00" stroke="rgb(220,0,0)" stroke-width="1.50"/>
<line x1="208.00" y1="476.00" x2="272.00" y2="454.00" stroke="rgb(220,0,0)" stroke-width="1.50"/>
<line x1="272.00" y1="454.00" x2="336.00" y2="432.00" stroke="rgb(220,0,0)" stroke-width="1.50"/>
<line x1="336.00" y1="432.00" x2="400.00" y2="410.00" stroke="rgb(220,0,0)" stroke-width="1.50"/>
<line x1="400.00" y1="410.00" x2="464.00" y2="388.00" stroke="rgb(220,0,0)" stroke-width="1.50"/>
<line x1="464.00" y1="388.00" x2="528.00" y2="366.00" stroke="rgb(220,0,0)" stroke-width="1.50"/>
<line x1="528.00" y1="366.00" x2="592.00" y2="344.00" stroke="rgb(220,0,0)" stroke-width="1.50"/>
<line x1="592.00" y1="344.00" x2="656.00" y2="322.00" stroke="rgb(220,0,0)" stroke-width="1.50"/>
<line x1="656.00" y1="322.00" x2="720.00" y2="300.00" stroke="rgb(220,0,0)" stroke-width="1.50"/>
<circle cx="80.00" cy="520.00" r="3.00" fill="black"/>
<circle cx="144.00" cy="498.00" r="3.00" fill="black"/>
<circle cx="208.00" cy="476.00" r="3.00" fill="black"/>
<circle cx="272.00" cy="454.00" r="3.00" fill="black"/>
<circle cx="336.00" cy="432.00" r="3.00" fill="black"/>
<circle cx="400.00" cy="410.00" r="3.00" fill="black"/>
<circle cx="464.00" cy="388.00" r="3.00" fill="black"/>
<circle cx="528.00" cy="366.00" r="3.00" fill="black"/>
<circle cx="592.00" cy="344.00" r="3.00" fill="black"/>
<circle cx="656.00" cy="322.00" r="3.00" fill="black"/>
<circle cx="720.00" cy="300.00" r="3.00" fill="black"/>
<line x1="80.00" y1="520.00" x2="144.00" y2="487.00" stroke="rgb(0,220,0)" stroke-width="1.50"/>
<line x1="144.00" y1="487.00" x2="208.00" y2="454.00" stroke="rgb(0,220,0)" stroke-width="1.50"/>
<line x1="208.00" y1="454.00" x2="272.00" y2="421.00" stroke="rgb(0,220,0)" stroke-width="1.50"/>
<line x1="272.00" y1="421.00" x2="336.00" y2="388.00" stroke="rgb(0,220,0)" stroke-width="1.50"/>
<line x1="336.00" y1="388.00" x2="400.00" y2="355.00" stroke="rgb(0,220,0)" stroke-width="1.50"/>
<line x1="400.00" y1="355.00" x2="464.00" y2="322.00" stroke="rgb(0,220,0)" stroke-width="1.50"/>
<line x1="464.00" y1="322.00" x2="528.00" y2="289.00" stroke="rgb(0,220,0)" stroke-width="1.50"/>
<line x1="528.00" y1="289.00" x2="592.00" y2="256.00" stroke="rgb(0,220,0)" stroke-width="1.50"/>
<line x1="592.00" y1="256.00" x2="656.00" y2="223.00" stroke="rgb(0,220,0)" stroke-width="1.50"/>
<line x1="656.00" y1="223.00" x2="720.00" y2="190.00" stroke="rgb(0,220,0)" stroke-width="1.50"/>
<circle cx="80.00" cy="520.00" r="3.00" fill="black"/>
<circle cx="144.00" cy="487.00" r="3.00" fill="black"/>
<circle cx="208.00" cy="454.00" r="3.00" fill="black"/>
<circle cx="272.00" cy="421.00" r="3.00" fill="black"/>
<circle cx="336.00" cy="388.00" r="3.00" fill="black"/>
<circle cx="400.00" cy="355.00" r="3.00" fill="black"/>
<circle cx="464.00" cy="322.00" r="3.00" fill="black"/>
<circle cx="528.00" cy="289.00" r="3.00" fill="black"/>
<circle cx="592.00" cy="256.00" r="3.00" fill="black"/>
<circle cx="656.00" cy="223.00" r="3.00" fill="black"/>
<circle cx="720.00" cy="190.00" r="3.00" fill="black"/>
<line x1="80.00" y1="520.00" x2="144.00" y2="476.00" stroke="rgb(150,100,50)" stroke-width="1.50"/>
<line x1="144.00" y1="476.00" x2="208.00" y2="432.00" stroke="rgb(150,100,50)" stroke-width="1.50"/>
<line x1="208.00" y1="432.00" x2="272.00" y2="388.00" stroke="rgb(150,100,50)" stroke-width="1.50"/>
<line x1="272.00" y1="388.00" x2="336.00" y2="344.00" stroke="rgb(150,100,50)" stroke-width="1.50"/>
<line x1="336.00" y1="344.00" x2="400.00" y2="300.00" stroke="rgb(150,100,50)" stroke-width="1.50"/>
<line x1="400.00" y1="300.00" x2="464.00" y2="256.00" stroke="rgb(150,100,50)" stroke-width="1.50"/>
<line x1="464.00" y1="256.00" x2="528.00" y2="212.00" stroke="rgb(150,100,50)" stroke-width="1.50"/>
<line x1="528.00" y1="212.00" x2="592.00" y2="168.00" stroke="rgb(150,100,50)" stroke-width="1.50"/>
<line x1="592.00" y1="168.00" x2="656.00" y2="124.00" stroke="rgb(150,100,50)" stroke-width="1.50"/>
<line x1="656.00" y1="124.00" x2="720.00" y2="80.00" stroke="rgb(150,100,50)" stroke-width="1.50"/>
<circle cx="80.00" cy="520.00" r="3.00" fill="black"/>
<circle cx="144.00" cy="476.00" r="3.00" fill="black"/>
<circle cx="208.00" cy="432.00" r="3.00" fill="black"/>
<circle cx="272.00" cy="388.00" r="3.00" fill="black"/>
<circle cx="336.00" cy="344.00" r="3.00" fill="black"/>
<circle cx="400.00" cy="300.00" r="3.00" fill="black"/>
<circle cx="464.00" cy="256.00" r="3.00" fill="black"/>
<circle cx="528.00" cy="212.00" r="3.00" fill="black"/>
<circle cx="592.00" cy="168.00" r="3.00" fill="black"/>
<circle cx="656.00" cy="124.00" r="3.00" fill="black"/>
<circle cx="720.00" cy="80.00" r="3.00" fill="black"/>
<rect x="0.00" y="555.00" width="389.00" height="22.00" fill="white" stroke="black" stroke-width="0.50" fill-opacity="0.5"/>
<rect x="5.00" y="560.00" width="12.00" height="12.00" fill="rgb(0,0,220)"/><text x="20.60" y="570.00" font-size="12.00" fill="rgb(0,0,220)">line1</text><rect x="101.00" y="560.00" width="12.00" height="12.00" fill="rgb(220,0,0)"/><text x="116.60" y="570.00" font-size="12.00" fill="rgb(220,0,0)">line2</text><rect x="197.00" y="560.00" width="12.00" height="12.00" fill="rgb(0,220,0)"/><text x="212.60" y="570.00" font-size="12.00" fill="rgb(0,220,0)">line3</text><rect x="293.00" y="560.00" width="12.00" height="12.00" fill="rgb(150,100,50)"/><text x="308.60" y="570.00" font-size="12.00" fill="rgb(150,100,50)">line4</text>
</svg>
